<?xml version="1.0" encoding="utf-8"?>
<!-- Generator: Adobe Illustrator 16.0.3, SVG Export Plug-In . SVG Version: 6.00 Build 0)  -->
<!DOCTYPE svg PUBLIC "-//W3C//DTD SVG 1.1//EN" "http://www.w3.org/Graphics/SVG/1.1/DTD/svg11.dtd">
<svg version="1.1" id="Layer_1" xmlns="http://www.w3.org/2000/svg" xmlns:xlink="http://www.w3.org/1999/xlink" x="0px" y="0px"
	 width="175px" height="30px" viewBox="0 0 175 30" enable-background="new 0 0 175 30" xml:space="preserve">
<path fill="#222222" d="M10.688,14.86c0.976,0.208,1.76,0.697,2.352,1.464c0.592,0.752,0.888,1.615,0.888,2.592
	c0,1.408-0.496,2.527-1.488,3.359c-0.976,0.816-2.344,1.225-4.104,1.225H0.488V6.652h7.584c1.712,0,3.048,0.392,4.008,1.176
	c0.976,0.784,1.464,1.848,1.464,3.192c0,0.992-0.264,1.816-0.792,2.472C12.24,14.148,11.552,14.604,10.688,14.86z M4.592,13.468
	H7.28c0.672,0,1.184-0.144,1.536-0.432c0.368-0.304,0.552-0.744,0.552-1.32c0-0.576-0.184-1.016-0.552-1.32
	C8.464,10.092,7.952,9.94,7.28,9.94H4.592V13.468z M7.616,20.188c0.688,0,1.216-0.151,1.584-0.455
	c0.384-0.32,0.576-0.776,0.576-1.368c0-0.593-0.2-1.056-0.6-1.392c-0.384-0.337-0.92-0.505-1.608-0.505H4.592v3.72H7.616z
	 M20.292,16.78c0-1.376,0.256-2.584,0.768-3.624c0.528-1.04,1.24-1.84,2.136-2.4s1.896-0.84,3-0.84c0.944,0,1.768,0.192,2.472,0.576
	c0.72,0.384,1.272,0.888,1.656,1.512v-1.896h4.104V23.5h-4.104v-1.896c-0.4,0.625-0.96,1.129-1.68,1.513
	c-0.704,0.384-1.528,0.575-2.472,0.575c-1.088,0-2.08-0.279-2.976-0.84c-0.896-0.576-1.608-1.384-2.136-2.424
	C20.548,19.372,20.292,18.156,20.292,16.78z M30.324,16.805c0-1.024-0.288-1.833-0.864-2.425c-0.56-0.592-1.248-0.888-2.064-0.888
	c-0.816,0-1.512,0.296-2.088,0.888c-0.56,0.576-0.84,1.376-0.84,2.4s0.28,1.84,0.84,2.448c0.576,0.592,1.272,0.888,2.088,0.888
	c0.816,0,1.504-0.296,2.064-0.888C30.036,18.636,30.324,17.828,30.324,16.805z M41.381,16.805c0-1.393,0.28-2.609,0.84-3.648
	c0.576-1.04,1.368-1.84,2.376-2.4c1.024-0.56,2.192-0.84,3.504-0.84c1.68,0,3.08,0.44,4.2,1.32c1.136,0.88,1.88,2.12,2.232,3.72
	h-4.368c-0.368-1.024-1.08-1.536-2.136-1.536c-0.752,0-1.352,0.296-1.8,0.888c-0.448,0.576-0.672,1.408-0.672,2.497
	c0,1.088,0.224,1.928,0.672,2.52c0.448,0.576,1.048,0.863,1.8,0.863c1.056,0,1.768-0.512,2.136-1.535h4.368
	c-0.352,1.567-1.096,2.8-2.232,3.695c-1.136,0.896-2.536,1.344-4.2,1.344c-1.312,0-2.48-0.279-3.504-0.84
	c-1.008-0.56-1.8-1.359-2.376-2.399C41.662,19.412,41.381,18.195,41.381,16.805z M69.712,23.5l-4.08-5.616V23.5h-4.104V5.74h4.104
	v9.816l4.056-5.449h5.064l-5.568,6.72l5.616,6.672H69.712z"/>
<path fill="#9B2323" d="M89.757,23.5l-3.504-6.359h-0.984V23.5h-4.104V6.652h6.888c1.328,0,2.456,0.232,3.384,0.696
	c0.944,0.464,1.647,1.104,2.112,1.92c0.464,0.8,0.695,1.696,0.695,2.688c0,1.12-0.319,2.12-0.959,3
	c-0.625,0.88-1.553,1.504-2.785,1.872l3.889,6.672H89.757z M85.269,14.236h2.544c0.752,0,1.313-0.184,1.68-0.552
	c0.385-0.368,0.576-0.888,0.576-1.56c0-0.64-0.191-1.144-0.576-1.512c-0.367-0.368-0.928-0.552-1.68-0.552h-2.544V14.236z
	 M107.717,23.691c-1.313,0-2.496-0.279-3.552-0.84c-1.04-0.56-1.864-1.359-2.472-2.399c-0.592-1.04-0.889-2.257-0.889-3.647
	c0-1.377,0.305-2.585,0.912-3.625c0.608-1.056,1.44-1.864,2.496-2.424c1.057-0.56,2.24-0.84,3.553-0.84
	c1.312,0,2.495,0.28,3.551,0.84c1.057,0.56,1.889,1.368,2.496,2.424c0.608,1.04,0.912,2.248,0.912,3.625
	c0,1.375-0.312,2.592-0.936,3.647c-0.607,1.04-1.448,1.84-2.52,2.399C110.213,23.412,109.029,23.691,107.717,23.691z
	 M107.717,20.141c0.784,0,1.448-0.289,1.992-0.865c0.561-0.575,0.84-1.399,0.84-2.471c0-1.072-0.271-1.896-0.816-2.473
	c-0.527-0.576-1.184-0.864-1.967-0.864c-0.801,0-1.465,0.288-1.992,0.864c-0.528,0.56-0.793,1.384-0.793,2.473
	c0,1.071,0.256,1.896,0.769,2.471C106.277,19.852,106.934,20.141,107.717,20.141z M120.886,16.78c0-1.376,0.257-2.584,0.769-3.624
	c0.527-1.04,1.24-1.84,2.136-2.4s1.896-0.84,3-0.84c0.944,0,1.769,0.192,2.472,0.576c0.721,0.384,1.272,0.888,1.656,1.512v-1.896
	h4.104V23.5h-4.104v-1.896c-0.4,0.625-0.96,1.129-1.68,1.513c-0.704,0.384-1.528,0.575-2.473,0.575c-1.088,0-2.08-0.279-2.976-0.84
	c-0.896-0.576-1.608-1.384-2.136-2.424C121.143,19.372,120.886,18.156,120.886,16.78z M130.918,16.805
	c0-1.024-0.288-1.833-0.863-2.425c-0.561-0.592-1.248-0.888-2.064-0.888s-1.512,0.296-2.088,0.888c-0.561,0.576-0.84,1.376-0.84,2.4
	s0.279,1.84,0.84,2.448c0.576,0.592,1.271,0.888,2.088,0.888s1.504-0.296,2.064-0.888C130.63,18.636,130.918,17.828,130.918,16.805z
	 M141.975,16.78c0-1.376,0.256-2.584,0.769-3.624c0.528-1.04,1.239-1.84,2.136-2.4s1.896-0.84,3-0.84c0.88,0,1.68,0.184,2.4,0.552
	c0.736,0.368,1.312,0.864,1.728,1.488V5.74h4.104V23.5h-4.104v-1.92c-0.384,0.64-0.937,1.152-1.655,1.536
	c-0.705,0.384-1.528,0.575-2.473,0.575c-1.104,0-2.104-0.279-3-0.84c-0.896-0.576-1.607-1.384-2.136-2.424
	C142.23,19.372,141.975,18.156,141.975,16.78z M152.007,16.805c0-1.024-0.288-1.833-0.864-2.425
	c-0.56-0.592-1.248-0.888-2.063-0.888s-1.513,0.296-2.088,0.888c-0.56,0.576-0.841,1.376-0.841,2.4s0.281,1.84,0.841,2.448
	c0.575,0.592,1.272,0.888,2.088,0.888s1.504-0.296,2.063-0.888C151.719,18.636,152.007,17.828,152.007,16.805z M169.328,23.691
	c-1.168,0-2.208-0.199-3.12-0.6s-1.632-0.943-2.16-1.632c-0.528-0.704-0.823-1.487-0.888-2.353h4.056
	c0.048,0.465,0.265,0.841,0.648,1.129c0.384,0.287,0.856,0.432,1.415,0.432c0.513,0,0.904-0.096,1.177-0.288
	c0.288-0.208,0.433-0.472,0.433-0.792c0-0.384-0.201-0.664-0.601-0.84c-0.399-0.191-1.048-0.4-1.944-0.624
	c-0.96-0.224-1.76-0.456-2.4-0.696c-0.639-0.256-1.191-0.647-1.655-1.176c-0.464-0.544-0.696-1.272-0.696-2.184
	c0-0.768,0.208-1.464,0.624-2.088c0.433-0.64,1.056-1.144,1.872-1.512c0.832-0.368,1.816-0.552,2.952-0.552
	c1.681,0,3,0.416,3.96,1.248c0.977,0.832,1.536,1.936,1.68,3.312h-3.791c-0.064-0.464-0.272-0.832-0.625-1.104
	c-0.336-0.272-0.783-0.408-1.344-0.408c-0.48,0-0.848,0.096-1.104,0.288c-0.256,0.176-0.385,0.424-0.385,0.744
	c0,0.384,0.2,0.672,0.601,0.864c0.416,0.192,1.056,0.384,1.92,0.576c0.991,0.255,1.8,0.512,2.424,0.768
	c0.624,0.239,1.168,0.64,1.632,1.2c0.48,0.544,0.729,1.279,0.744,2.207c0,0.785-0.225,1.488-0.672,2.113
	c-0.432,0.607-1.064,1.088-1.896,1.439C171.368,23.516,170.416,23.691,169.328,23.691z"/>
</svg>
